<?xml version="1.0" encoding="UTF-8"?>
<svg width="10px" height="10px" viewBox="0 0 10 10" version="1.1" xmlns="http://www.w3.org/2000/svg" xmlns:xlink="http://www.w3.org/1999/xlink">
    <!-- Generator: Sketch 52.3 (67297) - http://www.bohemiancoding.com/sketch -->
    <title>Fill 1</title>
    <desc>Created with Sketch.</desc>
    <g id="Beta---P2" stroke="none" stroke-width="1" fill="none" fill-rule="evenodd">
        <g id="D_support_centre_page" transform="translate(-1020.000000, -657.000000)" fill="#002B36">
            <path d="M1023.97059,657 L1023.97059,658.176471 L1021.51147,658.176471 C1021.32426,658.176471 1021.17647,658.352206 1021.17647,658.568824 L1021.17647,665.431176 C1021.17647,665.643971 1021.32647,665.823529 1021.51147,665.823529 L1028.48868,665.823529 C1028.67574,665.823529 1028.82353,665.647794 1028.82353,665.431176 L1028.82353,662.882353 L1030,662.882353 L1030,665.533824 C1030,666.343676 1029.41662,667 1028.69603,667 L1021.30397,667 C1020.58382,667 1020,666.342353 1020,665.533824 L1020,658.466176 C1020,657.656471 1020.58338,657 1021.30397,657 L1023.97059,657 Z M1024.52735,663.389265 L1028.82353,659.093088 L1028.82353,661.412206 L1030,661.412206 L1030,657.587794 C1030,657.425882 1029.93426,657.278971 1029.82779,657.1725 C1029.72132,657.065882 1029.57441,657 1029.41221,657 L1025.44074,657 L1025.44074,658.176471 L1027.91,658.176471 L1023.61235,662.474118 L1024.52735,663.389265 Z" id="Fill-1"></path>
        </g>
    </g>
</svg>