<svg width="15" height="12" viewBox="0 0 15 12" fill="none" xmlns="http://www.w3.org/2000/svg">
<path d="M7.49993 9.37503C5.7222 9.37503 4.28314 7.99902 4.15072 6.25528L1.69213 4.3552C1.36893 4.76067 1.07151 5.18934 0.831509 5.65809C0.777894 5.76415 0.74996 5.88132 0.74996 6.00016C0.74996 6.119 0.777894 6.23617 0.831509 6.34223C2.10252 8.82214 4.61876 10.5 7.49993 10.5C8.13063 10.5 8.73906 10.4063 9.32547 10.2549L8.1093 9.31386C7.90845 9.35266 7.70448 9.37314 7.49993 9.37503ZM14.8551 10.7367L12.2641 8.73425C13.0511 8.07095 13.6984 7.25776 14.1683 6.342C14.222 6.23594 14.2499 6.11876 14.2499 5.99993C14.2499 5.88109 14.222 5.76391 14.1683 5.65786C12.8973 3.17794 10.3811 1.50006 7.49993 1.50006C6.29325 1.50152 5.10617 1.8053 4.04712 2.38365L1.06541 0.0790456C1.02653 0.0487897 0.98207 0.026492 0.934567 0.0134267C0.887064 0.000361471 0.837452 -0.00321527 0.788566 0.0029009C0.73968 0.00901708 0.692479 0.0247063 0.649659 0.049072C0.606839 0.0734377 0.56924 0.106002 0.53901 0.144905L0.0789334 0.737169C0.017902 0.81568 -0.00944575 0.915219 0.00290486 1.01389C0.0152555 1.11256 0.0662931 1.20229 0.144793 1.26334L13.9344 11.921C13.9733 11.9513 14.0178 11.9736 14.0653 11.9867C14.1128 11.9997 14.1624 12.0033 14.2113 11.9972C14.2602 11.9911 14.3074 11.9754 14.3502 11.951C14.393 11.9266 14.4306 11.8941 14.4608 11.8552L14.9212 11.2629C14.9822 11.1844 15.0095 11.0848 14.9971 10.9861C14.9847 10.8875 14.9336 10.7978 14.8551 10.7367ZM10.5491 7.40863L9.62805 6.6966C9.70561 6.47242 9.74676 6.23725 9.74992 6.00004C9.75449 5.65276 9.67756 5.30925 9.52529 4.9971C9.37302 4.68494 9.14966 4.41285 8.87316 4.20268C8.59666 3.9925 8.27472 3.85011 7.93321 3.78693C7.59169 3.72374 7.24012 3.74154 6.90673 3.83888C7.04806 4.03039 7.12451 4.26204 7.12493 4.50005C7.12143 4.57925 7.10933 4.65784 7.08883 4.73442L5.36361 3.40107C5.9629 2.90026 6.71893 2.62563 7.49993 2.62505C7.94321 2.62481 8.38219 2.71194 8.79177 2.88146C9.20135 3.05098 9.57351 3.29957 9.88695 3.61302C10.2004 3.92646 10.449 4.29862 10.6185 4.7082C10.788 5.11778 10.8752 5.55676 10.8749 6.00004C10.8749 6.507 10.7509 6.97949 10.5491 7.40887V7.40863Z" fill="#828282"/>
</svg>
