<svg width="17" height="13" viewBox="0 0 17 13" fill="none" xmlns="http://www.w3.org/2000/svg">
<path d="M6.34767 6.5C6.34767 7.05115 6.56662 7.57973 6.95634 7.96946C7.34606 8.35918 7.87464 8.57812 8.4258 8.57812C8.97695 8.57812 9.50553 8.35918 9.89525 7.96946C10.285 7.57973 10.5039 7.05115 10.5039 6.5C10.5039 5.94885 10.285 5.42027 9.89525 5.03054C9.50553 4.64082 8.97695 4.42188 8.4258 4.42188C7.87464 4.42188 7.34606 4.64082 6.95634 5.03054C6.56662 5.42027 6.34767 5.94885 6.34767 6.5ZM16.4822 6.02129C14.7233 2.31592 12.0644 0.451172 8.50001 0.451172C4.9338 0.451172 2.27677 2.31592 0.517789 6.02314C0.447236 6.17254 0.410645 6.33571 0.410645 6.50093C0.410645 6.66615 0.447236 6.82931 0.517789 6.97871C2.27677 10.6841 4.93566 12.5488 8.50001 12.5488C12.0662 12.5488 14.7233 10.6841 16.4822 6.97686C16.6251 6.67627 16.6251 6.32744 16.4822 6.02129ZM8.4258 9.76562C6.62228 9.76562 5.16017 8.30352 5.16017 6.5C5.16017 4.69648 6.62228 3.23438 8.4258 3.23438C10.2293 3.23438 11.6914 4.69648 11.6914 6.5C11.6914 8.30352 10.2293 9.76562 8.4258 9.76562Z" fill="#828282"/>
</svg>
