<?xml version="1.0" encoding="UTF-8"?>
<svg width="47px" height="40px" viewBox="0 0 47 40" version="1.1" xmlns="http://www.w3.org/2000/svg" xmlns:xlink="http://www.w3.org/1999/xlink">
    <g id="Beta---P2" stroke="none" stroke-width="1" fill="none" fill-rule="evenodd">
        <g id="D_Contact_live" transform="translate(-852.000000, -311.000000)" stroke="#cccccc" stroke-width="2">
            <g id="Group-5" transform="translate(853.000000, 312.000000)">
                <path d="M9.82758621,13 L1.52456897,13 C0.685862069,13 0,13.6806191 0,14.5123444 L0,29.7024902 C0,30.534472 0.685862069,31.2148345 1.52456897,31.2148345 L4.26724138,31.2148345 L4.26724138,36.7162276 C4.26724138,37.8576051 5.65836207,38.4291917 6.47198276,37.6223515 L12.9310345,31.2148345 L28.475431,31.2148345 C29.3141379,31.2148345 30,30.534472 30,29.7024902 L30,23.5184256" id="Stroke-1"></path>
                <path d="M16.524569,0 L43.4756897,0 C44.3141379,0 45,0.680619098 45,1.51234436 L45,16.7024902 C45,17.534472 44.3141379,18.2148345 43.4756897,18.2148345 L40.7327586,18.2148345 L40.7327586,23.7162276 C40.7327586,24.8576051 39.3418966,25.4291917 38.5282759,24.6223515 L32.0689655,18.2148345 L16.524569,18.2148345 C15.6861207,18.2148345 15,17.534472 15,16.7024902 L15,1.51234436 C15,0.680619098 15.6861207,0 16.524569,0 Z" id="Stroke-3"></path>
            </g>
        </g>
    </g>
</svg>
