<?xml version="1.0" encoding="UTF-8"?>
<svg width="40px" height="53px" viewBox="0 0 40 53" version="1.1" xmlns="http://www.w3.org/2000/svg" xmlns:xlink="http://www.w3.org/1999/xlink">
    <!-- Generator: Sketch 52.4 (67378) - http://www.bohemiancoding.com/sketch -->
    <title>icon_marker copy</title>
    <desc>Created with Sketch.</desc>
    <g id="Beta---P2" stroke="none" stroke-width="1" fill="none" fill-rule="evenodd">
        <g id="D_support_centre_results" transform="translate(-382.000000, -796.000000)" stroke="#FC016A">
            <g id="icon_marker" transform="translate(383.000000, 797.000000)">
                <g id="Group-5">
                    <path d="M19.0922784,0.252475248 C8.70749459,0.252475248 0.256602703,8.56093069 0.256602703,18.7730495 C0.256602703,31.9790198 16.3737378,49.1528911 17.0608189,49.8764851 C17.5851162,50.4319307 18.3204676,50.7480297 19.0922784,50.7480297 C19.8620351,50.7480297 20.5979,50.4324356 21.1232243,49.8764851 C21.8103054,49.153396 37.9284676,31.9790198 37.9284676,18.7730495 C37.9279541,8.56042574 29.4775757,0.252475248 19.0922784,0.252475248 Z" id="Stroke-1" stroke-width="2"></path>
                    <path d="M11.6578351,18.1897812 C11.6578351,14.1511871 14.9859162,10.8770881 19.0924838,10.8770881 C23.1985378,10.8770881 26.5271324,14.1501772 26.5271324,18.1897812 C26.5271324,22.2273653 23.1990514,25.5004545 19.0924838,25.5004545 C14.9864297,25.4999495 11.6578351,22.2268604 11.6578351,18.1897812 Z" id="Stroke-3" stroke-width="2"></path>
                </g>
            </g>
        </g>
    </g>
</svg>