<svg width="54px" height="72px" viewBox="0 0 54 72" version="1.1" xmlns="http://www.w3.org/2000/svg" xmlns:xlink="http://www.w3.org/1999/xlink">
    <g id="Beta---P2" stroke="none" stroke-width="1" fill="none" fill-rule="evenodd">
        <g id="D_you're_offline" transform="translate(-179.000000, -273.000000)">
            <rect fill="#FFFFFF" x="0" y="0" width="1440" height="1071"></rect>
            <g id="icon_marker" transform="translate(180.000000, 274.000000)" stroke="#FC016A">
                <g id="Group-5">
                    <path d="M26.1262757,0.346534653 C11.9155189,0.346534653 0.351140541,11.750297 0.351140541,25.7669307 C0.351140541,43.8927723 22.4061676,67.4647525 23.3463838,68.4579208 C24.0638432,69.220297 25.0701135,69.6541584 26.1262757,69.6541584 C27.179627,69.6541584 28.1866,69.2209901 28.9054649,68.4579208 C29.8456811,67.4654455 51.9021135,43.8927723 51.9021135,25.7669307 C51.9014108,11.749604 40.3377351,0.346534653 26.1262757,0.346534653 Z" id="Stroke-1" stroke-width="2"></path>
                    <path d="M15.952827,24.9663663 C15.952827,19.423198 20.5070432,14.9293366 26.1265568,14.9293366 C31.7453676,14.9293366 36.3002865,19.4218119 36.3002865,24.9663663 C36.3002865,30.5081485 31.7460703,35.0006238 26.1265568,35.0006238 C20.5077459,34.9999307 15.952827,30.5074554 15.952827,24.9663663 Z" id="Stroke-3" stroke-width="2"></path>
                </g>
            </g>
        </g>
    </g>
</svg>