<?xml version="1.0" encoding="UTF-8"?>
<svg enable-background="new 0 0 820 180" version="1.1" viewBox="0 0 820 180" xml:space="preserve" xmlns="http://www.w3.org/2000/svg">
<style type="text/css">
	.st0{fill:none;}
	.st1{fill:#FFFFFF;}
</style>
<g transform="translate(0 640)">
			<path d="m150-615c0-1.6-0.4-2.8-1.2-3.7l-20-20c-0.9-0.9-2.2-1.3-3.8-1.3h-120c-3.3 0-5 1.7-5 5v150c0 1.6 0.4 2.9 1.3 3.8l20 20c0.9 0.8 2.1 1.2 3.7 1.2h30c3.3 0 5-1.7 5-5v-55h85c3.3 0 5-1.7 5-5v-30c0-1.6-0.4-2.8-1.2-3.7l-21.3-21.3h17.5c3.3 0 5-1.7 5-5v-30m160 0c0-1.6-0.4-2.8-1.2-3.7l-20.1-20.2c-0.8-0.8-2-1.1-3.6-1.1h-120.1c-3.3 0-5 1.7-5 5v150c0 1.6 0.4 2.8 1.1 3.6l20.2 20.1c0.9 0.8 2.1 1.2 3.7 1.2h30c3.3 0 5-1.7 5-5v-47.5l51.3 51.3c0.9 0.8 2.1 1.2 3.7 1.2h30c3.3 0 5-1.7 5-5v-30c0-1.6-0.4-2.8-1.2-3.7l-21.3-21.2h17.5c3.3 0 5-1.7 5-5v-90m160 0c0-1.6-0.4-2.8-1.2-3.7l-20.1-20.2c-0.8-0.8-2-1.1-3.6-1.1h-120.1c-3.3 0-5 1.7-5 5v150c0 1.6 0.4 2.8 1.1 3.6l20.1 20.1c0.9 0.8 2.1 1.2 3.7 1.2h30c3.3 0 5-1.7 5-5v-55h30v35c0 1.6 0.4 2.8 1.1 3.6l20.1 20.1c0.9 0.8 2.1 1.2 3.7 1.2h30c3.3 0 5-1.7 5-5v-149.8m168.9-23.8c-0.8-0.8-2-1.1-3.7-1.1h-30c-3.3 0-5 1.7-5 5v77.5l-81.3-81.4c-0.8-0.8-2-1.1-3.7-1.1h-30c-3.3 0-5 1.7-5 5v150c0 1.6 0.4 2.8 1.1 3.6l20.1 20.1c0.9 0.8 2.1 1.2 3.7 1.2h30c3.3 0 5-1.7 5-5v-77.5l81.3 81.3c0.9 0.8 2.1 1.2 3.7 1.2h30c3.3 0 5-1.7 5-5v-150c0-1.6-0.4-2.8-1.2-3.7l-20-20.1m160 0c-0.8-0.8-2-1.1-3.7-1.1h-30c-3.3 0-5 1.7-5 5v25h-30v-5c0-1.6-0.4-2.8-1.2-3.7l-20.1-20.2c-0.8-0.8-2-1.1-3.7-1.1h-30c-3.3 0-5 1.7-5 5v150c0 1.6 0.4 2.8 1.2 3.6l20.1 20.1c0.9 0.8 2.1 1.2 3.7 1.2h30c3.3 0 5-1.7 5-5v-47.5l51.3 51.3c0.9 0.8 2.1 1.2 3.7 1.2h30c3.3 0 5-1.7 5-5v-30c0-1.6-0.4-2.8-1.2-3.7l-51.3-51.3h17.5c3.3 0 5-1.7 5-5v-25h25c3.3 0 5-1.7 5-5v-30c0-1.6-0.4-2.8-1.2-3.7l-20.1-20.1z"/>
</g>
	<path class="st0" d="M410,155c0,3.3,1.7,5,5,5h7.8L410,147.2V155z"/>
	<path class="st0" d="M489.2,0H485c-3.3,0-5,1.7-5,5v1.4L633.6,160h1.4c3.3,0,5-1.7,5-5v-4.2L489.2,0z"/>
	<polygon class="st0" points="640 128.2 600 88.2 600 90 586.3 90 640 143.7"/>
	<polygon class="st0" points="670 105.8 710 145.8 710 130.2 670 90.2"/>
	<path class="st0" d="m410 140.1l19.9 19.9h15.1 0.4l-35.4-35.4v15.5z"/>
	<polygon class="st0" points="320 140.7 339.3 160 354.9 160 320 125.1"/>
	<polygon class="st0" points="640 105.5 600 65.5 600 81.1 640 121.1"/>
	<path class="st0" d="m320 118.1l39.5 39.5c0.3-0.7 0.5-1.6 0.5-2.6v-12.5l-40-40v15.6z"/>
	<path class="st0" d="M640,5c0-3.3-1.7-5-5-5h-2.9l7.9,7.9V5z"/>
	<polygon class="st0" points="770 99.7 760.3 90 744.8 90 770 115.2"/>
	<polygon class="st0" points="580 68.2 571.8 60 556.3 60 580 83.7"/>
	<polygon class="st0" points="640 14.9 625.1 0 609.5 0 640 30.5"/>
	<path class="st0" d="m768.3 90.9l0.8 0.8c-0.2-0.3-0.5-0.6-0.8-0.8z"/>
	<polygon class="st0" points="640 60.2 600 20.2 600 35.8 640 75.8"/>
	<path class="st0" d="M640,37.6L602.8,0.3C600.9,1,600,2.5,600,5v8.2l40,40V37.6z"/>
	<polygon class="st0" points="640 82.9 600 42.9 600 58.4 640 98.4"/>
	<polygon class="st0" points="410 40 410 49.6 450 89.6 450 74 376 0 360.4 0 400.4 40"/>
	<polygon class="st0" points="360 60 360 51.9 320 11.9 320 27.5 392.5 100 408.1 100 368.1 60"/>
	<polygon class="st0" points="410 60 397.8 60 450 112.2 450 96.6 410 56.6"/>
	<path class="st0" d="M360,40h10.7l-40-40H325c-3.3,0-4.9,1.6-5,4.9l40,40V40z"/>
	<polygon class="st0" points="550 38.2 541.8 30 526.3 30 550 53.7"/>
	<polygon class="st0" points="393.4 40 353.4 0 337.8 0 377.8 40"/>
	<path class="st0" d="M220,125c0,3.3,1.7,5,5,5h9.3L220,115.7V125z"/>
	<polygon class="st0" points="320 95.4 360 135.4 360 119.9 320 79.9"/>
	<path class="st0" d="M250,155c0,3.3,1.7,5,5,5h9.3L250,145.7V155z"/>
	<path class="st0" d="m410 101.9v15.6l39.7 39.7c0.2-0.6 0.3-1.4 0.3-2.2v-13.1l-40-40z"/>
	<polygon class="st0" points="320 50.1 369.9 100 385.4 100 320 34.6"/>
	<polygon class="st0" points="320 72.8 360 112.8 360 100 362.8 100 320 57.2"/>
	<polygon class="st0" points="450 6.1 443.9 0 428.3 0 450 21.7"/>
	<polygon class="st0" points="450 28.7 421.3 0 405.7 0 450 44.3"/>
	<polygon class="st0" points="397.8 60 410 60 410 56.6 410 49.6 410 40 400.4 40 393.4 40 377.8 40 370.7 40 360 40 360 44.9 360 51.9 360 60 368.1 60 375.1 60 390.7 60"/>
	<polygon class="st0" points="375.1 60 450 134.9 450 119.3 390.7 60"/>
	<polygon class="st0" points="450 51.4 398.6 0 383.1 0 450 66.9"/>
	<path class="st0" d="M670,37.9L792.1,160h2.9c3.3,0,5-1.7,5-5v-2.7l-130-130V37.9z"/>
	<path class="st0" d="M735,30c-1.7,0-2.9,0.4-3.7,1.2l37.5,37.5c0.8-0.8,1.2-2.1,1.2-3.7V54.4L745.6,30H735z"/>
	<polygon class="st0" points="730 120.5 739.5 130 755.1 130 730 104.9"/>
	<polygon class="st0" points="800 129.7 790.3 120 774.8 120 800 145.2"/>
	<polygon class="st0" points="730 60 714.8 60 740 85.2 740 70 740.3 70 730 59.7"/>
	<path class="st0" d="M710,39.7L671.4,1.1C670.5,1.9,670,3.2,670,5v10.2l40,40V39.7z"/>
	<polygon class="st0" points="760 150.5 769.5 160 785.1 160 760 134.9"/>
	<path class="st0" d="M760,5v9.7L785.3,40h9.7c2,0,3.3-0.6,4.1-1.8L761.8,0.9C760.6,1.7,760,3,760,5z"/>
	<polygon class="st0" points="760 30 752.7 30 770 47.3 770 40 778.3 40 760 21.7"/>
	<polygon class="st0" points="730 52.6 747.4 70 763 70 730 37"/>
	<polygon class="st0" points="670 60.5 710 100.5 710 100 725.1 100 670 44.9"/>
	<path class="st0" d="m670 128.4l31.6 31.6h3.4c3.3 0 5-1.7 5-5v-2.1l-40-40v15.5z"/>
	<polygon class="st0" points="670 151.1 678.9 160 694.5 160 670 135.5"/>
	<polygon class="st0" points="670 83.2 710 123.2 710 107.6 670 67.6"/>
	<polygon class="st0" points="710 17 693 0 677.4 0 710 32.6"/>
	<path class="st0" d="M160,155c0,3.3,1.7,5,5,5h8.7L160,146.3V155z"/>
	<path class="st0" d="M710,5c0-3.3-1.7-5-5-5h-5l10,10V5z"/>
	<path class="st0" d="m603.8 159.9l-3.8-3.8c0.4 2.3 1.6 3.5 3.8 3.8z"/>
	<polygon class="st0" points="540 89 551 100 566.6 100 540 73.4"/>
	<polygon class="st0" points="480 142.2 497.8 160 513.4 160 480 126.6"/>
	<path class="st0" d="m480 119.6l38.9 38.9c0.7-0.8 1.1-2 1.1-3.5v-11l-40-40v15.6z"/>
	<path class="st0" d="M480,155c0,3.3,1.7,5,5,5h5.7L480,149.3V155z"/>
	<polygon class="st0" points="480 96.9 520 136.9 520 121.4 480 81.4"/>
	<polygon class="st0" points="480 29 521 70 536.6 70 480 13.4"/>
	<polygon class="st0" points="480 51.7 520 91.7 520 76.1 480 36.1"/>
	<polygon class="st0" points="480 74.3 520 114.3 520 98.7 480 58.7"/>
	<polygon class="st0" points="600 149 611 160 626.6 160 600 133.4"/>
	<path class="st0" d="m795 0h-4.4l9.4 9.4v-4.4c0-3.3-1.7-5-5-5z"/>
	<polygon class="st0" points="520 8.2 511.8 0 496.3 0 520 23.7"/>
	<path class="st0" d="m798.3 120.9l0.8 0.8c-0.2-0.3-0.5-0.6-0.8-0.8z"/>
	<polygon class="st0" points="768 0 800 32 800 16.5 783.5 0"/>
	<polygon class="st0" points="570 119 581 130 596.6 130 570 103.4"/>
	<path class="st0" d="m573.8 129.9l-3.8-3.8c0.4 2.3 1.6 3.5 3.8 3.8z"/>
	<path class="st0" d="m543.8 99.9l-3.8-3.8c0.4 2.3 1.6 3.5 3.8 3.8z"/>
	<path class="st0" d="M320,155c0,3.3,1.7,5,5,5h7.2L320,147.8V155z"/>
	<polygon class="st0" points="250 40 250 48.1 290 88.1 290 72.5 217.5 0 201.9 0 241.9 40"/>
	<polygon class="st0" points="130 71 119 60 103.4 60 130 86.6"/>
	<path class="st0" d="M250,60h-10.7l40,40h5.7c3.3,0,4.9-1.6,5-4.9l-40-40V60z"/>
	<path class="st0" d="M200,40h12.2l-40-40H165c-2.8,0-4.4,1.2-4.8,3.5L200,43.3V40z"/>
	<path class="st0" d="m126.2 60.1l3.8 3.8c-0.4-2.3-1.6-3.5-3.8-3.8z"/>
	<polygon class="st0" points="234.9 40 194.9 0 179.3 0 219.3 40"/>
	<polygon class="st0" points="290 49.9 240.1 0 224.6 0 290 65.4"/>
	<polygon class="st0" points="290 27.2 262.8 0 247.2 0 290 42.8"/>
	<polygon class="st0" points="216.7 60 260 103.3 260 100 272.2 100 232.2 60"/>
	<path class="st0" d="M125,100c3.3,0,5-1.7,5-5v-1.4L96.4,60H80.8l40,40H125z"/>
	<polygon class="st0" points="232.2 60 239.3 60 250 60 250 55.1 250 48.1 250 40 241.9 40 234.9 40 219.3 40 212.2 40 200 40 200 43.3 200 50.4 200 60 209.6 60 216.7 60"/>
	<path class="st0" d="M130,5c0-0.9-0.1-1.7-0.4-2.3l-2.3-2.3C126.7,0.1,125.9,0,125,0h-13.6L130,18.6V5z"/>
	<polygon class="st0" points="121.7 40 81.7 0 66.1 0 106.1 40"/>
	<polygon class="st0" points="0 92.4 40 132.4 40 116.8 0 76.8"/>
	<path class="st0" d="m130 35v-9.3l-25.7-25.7h-15.6l39.3 39.3c1.3-0.8 2-2.2 2-4.3z"/>
	<path class="st0" d="m0 115l40 40v-15.5l-40-40v15.5z"/>
	<polygon class="st0" points="113.7 100 73.7 60 58.2 60 98.2 100"/>
	<path class="st0" d="M0,155c0,3.3,1.7,5,5,5h10.2L0,144.8V155z"/>
	<path class="st0" d="M269.6,120H260v-9.6L209.6,60H200v-9.6l-40-40V26l129.9,129.9c0-0.3,0.1-0.6,0.1-0.9v-14.6L269.6,120z"/>
	<polygon class="st0" points="99 40 59 0 43.4 0 83.4 40"/>
	<path class="st0" d="M40,40h13.7l-40-40H5C2.7,0,1.2,0.8,0.5,2.4L40,41.8V40z"/>
	<polygon class="st0" points="76.4 40 36.4 0 20.8 0 60.8 40"/>
	<path class="st0" d="M0,137.7L22.3,160H35c1,0,1.8-0.2,2.5-0.4L0,122.1V137.7z"/>
	<path class="st0" d="M290,125c0-3.3-1.7-5-5-5h-8.3l13.3,13.3V125z"/>
	<path class="st0" d="m160 116.6l39.9 39.9c0.1-0.4 0.1-0.9 0.1-1.4v-14l-40-40v15.5z"/>
	<path class="st0" d="M160,48.6l51.4,51.4h8.6v8.6l21.4,21.4h8.6v8.6l21.4,21.4H285c0.6,0,1.2-0.1,1.7-0.2L160,33.1V48.6z"/>
	<polygon class="st0" points="68.5 100 0 31.5 0 47.1 52.9 100"/>
	<polygon class="st0" points="91.1 100 51.1 60 40 60 40 48.9 0 8.9 0 24.5 75.5 100"/>
	<polygon class="st0" points="160 71.3 200 111.3 200 100 204.3 100 160 55.7"/>
	<polygon class="st0" points="0 54.2 0 69.8 40 109.8 40 100 45.8 100"/>
	<path class="st0" d="m290 5v-0.5l-4.5-4.5h-0.5-15.1l20.1 20.1v-15.1z"/>
	<polygon class="st0" points="160 93.9 200 133.9 200 118.3 160 78.3"/>
	<path class="st0" d="M160,139.2l20.8,20.8H195c0.5,0,0.9,0,1.3-0.1L160,123.6V139.2z"/>
	<polygon class="st1" points="0 144.8 15.2 160 22.3 160 0 137.7"/>
	<path class="st1" d="M0,122.1l37.5,37.5c1.7-0.7,2.5-2.2,2.5-4.5L0,115V122.1z"/>
	<polygon class="st1" points="0 99.5 40 139.5 40 132.4 0 92.4"/>
	<polygon class="st1" points="0 76.8 40 116.8 40 109.8 0 69.8"/>
	<polygon class="st1" points="52.9 100 0 47.1 0 54.2 45.8 100"/>
	<polygon class="st1" points="75.5 100 0 24.5 0 31.5 68.5 100"/>
	<path class="st1" d="M40,41.8L0.5,2.4C0.2,3.1,0,3.9,0,5v3.9l40,40V41.8z"/>
	<polygon class="st1" points="98.2 100 58.2 60 51.1 60 91.1 100"/>
	<polygon class="st1" points="160 146.3 173.7 160 180.8 160 160 139.2"/>
	<polygon class="st1" points="60.8 40 20.8 0 13.7 0 53.7 40"/>
	<polygon class="st1" points="120.8 100 80.8 60 73.7 60 113.7 100"/>
	<polygon class="st1" points="83.4 40 43.4 0 36.4 0 76.4 40"/>
	<polygon class="st1" points="130 86.6 103.4 60 96.4 60 130 93.6"/>
	<path class="st1" d="m160 123.6l36.3 36.3c2-0.3 3.2-1.5 3.6-3.5l-39.9-39.8v7z"/>
	<polygon class="st1" points="160 101 200 141 200 133.9 160 93.9"/>
	<polygon class="st1" points="106.1 40 66.1 0 59 0 99 40"/>
	<path class="st1" d="M130,65c0-0.4,0-0.8-0.1-1.2l-3.8-3.8c-0.4-0.1-0.8-0.1-1.2-0.1h-6l11,11V65z"/>
	<path class="st1" d="M125,40c1.2,0,2.3-0.2,3-0.7L88.7,0h-7.1l40,40H125z"/>
	<polygon class="st1" points="160 78.3 200 118.3 200 111.3 160 71.3"/>
	<polygon class="st1" points="220 115.7 234.3 130 241.4 130 220 108.6"/>
	<polygon class="st1" points="250 145.7 264.3 160 271.4 160 250 138.6"/>
	<polygon class="st1" points="130 18.6 111.4 0 104.3 0 130 25.7"/>
	<polygon class="st1" points="160 55.7 204.3 100 211.4 100 160 48.6"/>
	<path class="st1" d="m127.3 0.4l2.3 2.3c-0.4-1.1-1.2-1.9-2.3-2.3z"/>
	<path class="st1" d="M160,33.1l126.7,126.7c1.9-0.5,3-1.7,3.2-3.9L160,26V33.1z"/>
	<polygon class="st1" points="209.6 60 260 110.4 260 103.3 216.7 60"/>
	<path class="st1" d="M200,43.3L160.2,3.5C160.1,4,160,4.4,160,5v5.4l40,40V43.3z"/>
	<polygon class="st1" points="290 133.3 276.7 120 269.6 120 290 140.4"/>
	<polygon class="st1" points="219.3 40 179.3 0 172.2 0 212.2 40"/>
	<polygon class="st1" points="232.2 60 272.2 100 279.3 100 239.3 60"/>
	<polygon class="st1" points="320 147.8 332.2 160 339.3 160 320 140.7"/>
	<path class="st1" d="m320 125.1l34.9 34.9h0.1c2.3 0 3.8-0.8 4.5-2.4l-39.5-39.5v7z"/>
	<path class="st1" d="m250 55.1l40 40v-0.1-6.9l-40-40v7z"/>
	<polygon class="st1" points="241.9 40 201.9 0 194.9 0 234.9 40"/>
	<polygon class="st1" points="290 65.4 224.6 0 217.5 0 290 72.5"/>
	<polygon class="st1" points="320 102.5 360 142.5 360 135.4 320 95.4"/>
	<polygon class="st1" points="290 42.8 247.2 0 240.1 0 290 49.9"/>
	<polygon class="st1" points="320 79.9 360 119.9 360 112.8 320 72.8"/>
	<polygon class="st1" points="410 147.2 422.8 160 429.9 160 410 140.1"/>
	<polygon class="st1" points="290 20.1 269.9 0 262.8 0 290 27.2"/>
	<polygon class="st1" points="320 57.2 362.8 100 369.9 100 320 50.1"/>
	<path class="st1" d="m285.5 0l4.5 4.5c-0.2-2.8-1.7-4.3-4.5-4.5z"/>
	<polygon class="st1" points="320 34.6 385.4 100 392.5 100 320 27.5"/>
	<path class="st1" d="m410 124.6l35.4 35.4c2.3-0.1 3.7-1 4.3-2.8l-39.7-39.7v7.1z"/>
	<path class="st1" d="m360 44.9l-40-40v0.1 6.9l40 40v-7z"/>
	<polygon class="st1" points="450 134.9 375.1 60 368.1 60 408.1 100 410 100 410 101.9 450 141.9"/>
	<polygon class="st1" points="390.7 60 450 119.3 450 112.2 397.8 60"/>
	<polygon class="st1" points="377.8 40 337.8 0 330.7 0 370.7 40"/>
	<polygon class="st1" points="480 149.3 490.7 160 497.8 160 480 142.2"/>
	<polygon class="st1" points="410 56.6 450 96.6 450 89.6 410 49.6"/>
	<polygon class="st1" points="400.4 40 360.4 0 353.4 0 393.4 40"/>
	<path class="st1" d="m480 126.6l33.4 33.4h1.6c1.8 0 3.1-0.5 3.9-1.5l-38.9-38.9v7z"/>
	<polygon class="st1" points="450 66.9 383.1 0 376 0 450 74"/>
	<polygon class="st1" points="480 104 520 144 520 136.9 480 96.9"/>
	<polygon class="st1" points="480 81.4 520 121.4 520 114.3 480 74.3"/>
	<polygon class="st1" points="450 44.3 405.7 0 398.6 0 450 51.4"/>
	<polygon class="st1" points="480 58.7 520 98.7 520 91.7 480 51.7"/>
	<polygon class="st1" points="450 21.7 428.3 0 421.3 0 450 28.7"/>
	<path class="st1" d="M450,5c0-3.3-1.7-5-5-5h-1.1l6.1,6.1V5z"/>
	<path class="st1" d="m570 125c0 0.4 0 0.8 0.1 1.2l3.8 3.8c0.4 0.1 0.7 0.1 1.2 0.1h6l-11-11v5.9z"/>
	<polygon class="st1" points="480 36.1 520 76.1 520 70 521 70 480 29"/>
	<path class="st1" d="M540,95c0,0.4,0,0.8,0.1,1.2l3.8,3.8c0.4,0.1,0.7,0.1,1.2,0.1h6l-11-11V95z"/>
	<path class="st1" d="m600 155c0 0.4 0 0.8 0.1 1.2l3.8 3.8c0.4 0.1 0.7 0.1 1.2 0.1h6l-11-11v5.9z"/>
	<polygon class="st1" points="480 13.4 536.6 70 540 70 540 73.4 566.6 100 570 100 570 103.4 596.6 130 600 130 600 133.4 626.6 160 633.6 160 480 6.4"/>
	<polygon class="st1" points="640 143.7 586.3 90 580 90 580 83.7 556.3 60 550 60 550 53.7 526.3 30 520 30 520 23.7 496.3 0 489.2 0 640 150.8"/>
	<path class="st1" d="m670 155c0 3.3 1.7 5 5 5h3.9l-8.9-8.9v3.9z"/>
	<path class="st1" d="M550,35c0-3.3-1.7-5-5-5h-3.2l8.2,8.2V35z"/>
	<path class="st1" d="M520,5c0-3.3-1.7-5-5-5h-3.2l8.2,8.2V5z"/>
	<path class="st1" d="M580,65c0-3.3-1.7-5-5-5h-3.2l8.2,8.2V65z"/>
	<polygon class="st1" points="640 121.1 600 81.1 600 88.2 640 128.2"/>
	<polygon class="st1" points="670 135.5 694.5 160 701.6 160 670 128.4"/>
	<polygon class="st1" points="640 98.4 600 58.4 600 65.5 640 105.5"/>
	<polygon class="st1" points="670 112.9 710 152.9 710 145.8 670 105.8"/>
	<polygon class="st1" points="640 75.8 600 35.8 600 42.9 640 82.9"/>
	<polygon class="st1" points="670 90.2 710 130.2 710 123.2 670 83.2"/>
	<polygon class="st1" points="640 53.2 600 13.2 600 20.2 640 60.2"/>
	<path class="st1" d="m730 125c0 3.3 1.7 5 5 5h4.5l-9.5-9.5v4.5z"/>
	<path class="st1" d="m760 155c0 3.3 1.7 5 5 5h4.5l-9.5-9.5v4.5z"/>
	<path class="st1" d="M640,30.5L609.5,0H605c-0.9,0-1.6,0.1-2.2,0.3L640,37.6V30.5z"/>
	<polygon class="st1" points="670 67.6 710 107.6 710 100.5 670 60.5"/>
	<polygon class="st1" points="640 7.9 632.1 0 625.1 0 640 14.9"/>
	<polygon class="st1" points="670 44.9 725.1 100 730 100 730 104.9 755.1 130 760 130 760 134.9 785.1 160 792.1 160 670 37.9"/>
	<polygon class="st1" points="710 60 710 55.2 670 15.2 670 22.3 800 152.3 800 145.2 774.8 120 770 120 770 115.2 744.8 90 740 90 740 85.2 714.8 60"/>
	<path class="st1" d="M710,32.6L677.4,0H675c-1.6,0-2.7,0.4-3.6,1.1L710,39.7V32.6z"/>
	<path class="st1" d="M800,125c0-1.4-0.3-2.5-0.9-3.3l-0.8-0.8c-0.8-0.6-1.9-0.9-3.3-0.9h-4.7l9.7,9.7V125z"/>
	<path class="st1" d="M770,95c0-1.4-0.3-2.5-0.9-3.3l-0.8-0.8c-0.8-0.6-1.9-0.9-3.3-0.9h-4.7l9.7,9.7V95z"/>
	<polygon class="st1" points="730 59.7 740.3 70 747.4 70 730 52.6"/>
	<path class="st1" d="m730 35v2l33 33h2c1.7 0 2.9-0.4 3.8-1.3l-37.5-37.5c-0.9 0.9-1.3 2.1-1.3 3.8z"/>
	<polygon class="st1" points="710 10 700 0 693 0 710 17"/>
	<polygon class="st1" points="745.6 30 770 54.4 770 47.3 752.7 30"/>
	<polygon class="st1" points="760 21.7 778.3 40 785.3 40 760 14.7"/>
	<path class="st1" d="M765,0c-1.4,0-2.4,0.3-3.2,0.9l37.4,37.4c0.6-0.8,0.9-1.9,0.9-3.2v-3L768,0H765z"/>
	<polygon class="st1" points="783.5 0 800 16.5 800 9.4 790.6 0"/>
</svg>
