<?xml version="1.0" encoding="UTF-8"?>
<svg width="70px" height="69px" viewBox="0 0 70 69" version="1.1" xmlns="http://www.w3.org/2000/svg" xmlns:xlink="http://www.w3.org/1999/xlink">
    <!-- Generator: Sketch 52.3 (67297) - http://www.bohemiancoding.com/sketch -->
    <title>Group Copy</title>
    <desc>Created with Sketch.</desc>
    <g id="Beta---P2" stroke="none" stroke-width="1" fill="none" fill-rule="evenodd">
        <g id="D_Search_Results_none" transform="translate(-284.000000, -292.000000)">
            <g id="Group-Copy" transform="translate(275.000000, 283.000000)">
                <path d="M35.84,42.556 C35.84,41.4159943 36.1249971,40.4660038 36.695,39.706 C37.2650028,38.9459962 38.1073278,38.1100046 39.222,37.198 C40.2860053,36.3366624 41.0903306,35.5450036 41.635,34.823 C42.1796694,34.1009964 42.452,33.2206719 42.452,32.182 C42.452,31.1433281 42.12267,30.1743378 41.464,29.275 C40.80533,28.3756622 39.5893422,27.926 37.816,27.926 C35.7133228,27.926 34.2946703,28.4516614 33.56,29.503 C32.8253297,30.5543386 32.458,31.7386601 32.458,33.056 C32.458,33.3346681 32.4643333,33.5626658 32.477,33.74 C32.4896667,33.9173342 32.496,34.0313331 32.496,34.082 L29.114,34.082 C29.0886665,33.9806662 29.0633335,33.8033346 29.038,33.55 C29.0126665,33.2966654 29,33.0306681 29,32.752 C29,31.2826593 29.3356633,29.9653392 30.007,28.8 C30.6783367,27.6346608 31.6979932,26.7100034 33.066,26.026 C34.4340068,25.3419966 36.1059901,25 38.082,25 C40.3873449,25 42.268326,25.6143272 43.725,26.843 C45.1816739,28.0716728 45.91,29.7119897 45.91,31.764 C45.91,33.1066734 45.7136686,34.2403287 45.321,35.165 C44.9283314,36.0896713 44.4596694,36.8369972 43.915,37.407 C43.3703306,37.9770029 42.6673376,38.59133 41.806,39.25 C40.8939954,39.9846703 40.2226688,40.6116641 39.792,41.131 C39.3613312,41.6503359 39.146,42.3153293 39.146,43.126 L39.146,44.684 L35.84,44.684 L35.84,42.556 Z M35.574,47.42 L39.374,47.42 L39.374,51.524 L35.574,51.524 L35.574,47.42 Z" id="?" fill="#FC016A"></path>
                <g id="Group-8" transform="translate(47.901281, 47.729708) rotate(-45.000000) translate(-47.901281, -47.729708) translate(20.901281, 7.229708)" stroke="#0E3944" stroke-width="4">
                    <ellipse id="Oval-5" cx="26.5251263" cy="26.2652416" rx="26.5" ry="26"></ellipse>
                    <path d="M27.4478395,79.1225063 L27.4478395,53.92811" id="Line-8" stroke-linecap="square"></path>
                </g>
            </g>
        </g>
    </g>
</svg>