<?xml version="1.0" encoding="UTF-8"?>
<svg width="22px" height="23px" viewBox="0 0 22 23" version="1.1" xmlns="http://www.w3.org/2000/svg" xmlns:xlink="http://www.w3.org/1999/xlink">
<g id="Beta---P2" stroke="none" stroke-width="1" fill="none" fill-rule="evenodd">
<g id="D_Support_centre_search" transform="translate(-917.000000, -943.000000)" fill="#FFFFFF" fill-rule="nonzero">
<path d="M930.515427,959.78787 C927.071512,961.787636 922.585077,961.312999 919.636039,958.363961 C916.12132,954.849242 916.12132,949.150758 919.636039,945.636039 C923.150758,942.12132 928.849242,942.12132 932.363961,945.636039 C935.471199,948.743277 935.831438,953.55728 933.444679,957.060268 L938.916567,962.532156 L936.08814,965.360583 L930.515427,959.78787 Z M929.535534,955.535534 C931.488155,953.582912 931.488155,950.417088 929.535534,948.464466 C927.582912,946.511845 924.417088,946.511845 922.464466,948.464466 C920.511845,950.417088 920.511845,953.582912 922.464466,955.535534 C924.417088,957.488155 927.582912,957.488155 929.535534,955.535534 Z" id="Combined-Shape"></path>
</g>
</g>
</svg>
