<svg width="400" height="400" viewBox="0 0 400 400" fill="none" xmlns="http://www.w3.org/2000/svg">
<rect width="400" height="400" fill="white"/>
<path fill-rule="evenodd" clip-rule="evenodd" d="M260.499 188.174H259.009L262.176 191.344V193.046L257.311 188.174H253.002L262.176 197.359V198.249H268.9V195.727L261.755 188.582C261.896 188.723 262.001 188.9 262.071 189.111C261.859 188.487 261.335 188.174 260.499 188.174" fill="#0E3944"/>
<path fill-rule="evenodd" clip-rule="evenodd" d="M250.412 178.086H248.936L252.089 181.244V182.945L247.237 178.086H242.929L252.089 187.258V188.161H260.494C261.055 188.161 261.475 188.301 261.755 188.582L251.669 178.495C251.809 178.636 251.915 178.812 251.985 179.023C251.772 178.4 251.248 178.086 250.412 178.086" fill="#0E3944"/>
<mask id="mask0" mask-type="alpha" maskUnits="userSpaceOnUse" x="47" y="168" width="54" height="64">
<path fill-rule="evenodd" clip-rule="evenodd" d="M47 168H100.835V231.914H47V168Z" fill="white"/>
</mask>
<g mask="url(#mask0)">
<path fill-rule="evenodd" clip-rule="evenodd" d="M90.1908 181.089C90.1348 181.135 90.0771 181.18 90.0121 181.217C90.0771 181.18 90.1348 181.135 90.1908 181.089V181.089ZM90.4812 180.75C90.4453 180.814 90.4011 180.869 90.3557 180.925C90.4011 180.87 90.4448 180.814 90.4812 180.75V180.75ZM90.6186 180.402C90.6023 180.462 90.5827 180.519 90.5609 180.574C90.5827 180.519 90.6018 180.462 90.6186 180.402V180.402ZM90.6886 179.975C90.6836 180.046 90.6802 180.118 90.6696 180.184C90.6802 180.118 90.6836 180.046 90.6886 179.975V179.975ZM90.4815 168.677C90.4843 168.683 90.4865 168.69 90.4899 168.697C90.4865 168.69 90.4843 168.683 90.4815 168.677V168.677ZM90.0536 201.369C90.0502 201.371 90.048 201.373 90.0446 201.375C90.048 201.373 90.0502 201.371 90.0536 201.369V201.369ZM90.3444 168.47C90.3348 168.461 90.322 168.454 90.3119 168.445C90.3371 168.472 90.355 168.507 90.378 168.536C90.1023 168.183 89.6562 168 89.0269 168H88.7361L90.7036 169.97V171.671L87.0371 168H82.7296L90.7036 175.985V177.686L81.0305 168H76.723L89.9499 181.244C89.7011 181.369 89.3962 181.437 89.0225 181.437H88.443L75.024 168H70.7164L84.1355 181.437H82.437L69.0174 168H64.7099L78.1295 181.437H76.4305L63.0114 168H58.7039L72.123 181.437H70.4239L57.0048 168H52.6968L66.1164 181.437H64.4174L50.9983 168H48.6806C48.0171 168 47.5554 168.201 47.2842 168.595L60.4438 181.772V183.473L46.9995 170.011V174.324L60.4438 187.786V188.161H89.0225C90.095 188.161 90.6481 188.68 90.6946 189.706L89.1738 188.183C89.1239 188.18 89.0791 188.173 89.0269 188.173H84.8561L90.7036 194.028V195.73L83.1571 188.173H78.8496L90.6963 200.036C90.6772 200.584 90.5147 200.988 90.2088 201.248L77.1506 188.173H72.843L86.2627 201.61H84.5636L71.144 188.173H66.8365L80.2561 201.61H78.5571L65.138 188.173H60.8299L74.2495 201.61H72.5505L46.9995 176.025V180.338L68.243 201.61H66.5439L46.9995 182.039V186.353L62.2364 201.61H60.5374L46.9995 188.054V192.368L60.4438 205.83V207.531L46.9995 194.069V198.382L60.4438 211.845V213.546L46.9995 200.083V204.397L60.4438 217.859V219.56L46.9995 206.098V210.411L58.3564 221.783H56.6574L46.9995 212.113V216.426L52.3499 221.783H50.6509L46.9995 218.128V220.114C46.9995 220.701 47.1581 221.131 47.4663 221.411C47.4697 221.416 47.473 221.42 47.4764 221.424L57.563 231.511C57.8499 231.78 58.2645 231.914 58.8075 231.914H68.8941C70.0149 231.914 70.5752 231.354 70.5752 230.233V211.741H99.1539C100.275 211.741 100.835 211.181 100.835 210.06V199.973C100.835 199.43 100.7 199.016 100.431 198.729L93.27 191.568H99.1539C100.275 191.568 100.835 191.008 100.835 189.887V179.8C100.835 179.257 100.7 178.843 100.431 178.556L90.3444 168.47Z" fill="#0E3944"/>
</g>
<path fill-rule="evenodd" clip-rule="evenodd" d="M242.003 178.075H250.408C250.969 178.075 251.389 178.215 251.669 178.495L241.593 168.42C241.592 168.418 241.59 168.417 241.587 168.416C241.693 168.523 241.773 168.657 241.838 168.805C241.598 168.273 241.099 168 240.326 168H238.863L242.003 171.144V172.844L237.164 168H232.857L242.003 177.157V178.075Z" fill="#0E3944"/>
<path fill-rule="evenodd" clip-rule="evenodd" d="M312.609 188.161H319.334V179.756C319.334 178.635 319.894 178.075 321.015 178.075H321.855L312.2 168.42C312.199 168.418 312.196 168.417 312.194 168.416C312.333 168.555 312.436 168.73 312.505 168.939C312.294 168.316 311.774 168.003 310.942 168L312.609 169.669V171.371L309.243 168H304.935L312.609 175.684V177.386L303.236 168H300.846C300.207 168 299.756 168.188 299.482 168.554L312.609 181.699V183.4L299.165 169.938V174.251L312.609 187.713V188.161Z" fill="#0E3944"/>
<mask id="mask1" mask-type="alpha" maskUnits="userSpaceOnUse" x="299" y="175" width="54" height="57">
<path fill-rule="evenodd" clip-rule="evenodd" d="M299.165 175.952H353V231.914H299.165V175.952Z" fill="white"/>
</mask>
<g mask="url(#mask1)">
<path fill-rule="evenodd" clip-rule="evenodd" d="M342.449 208.755C342.589 208.896 342.694 209.071 342.764 209.283C342.552 208.659 342.029 208.346 341.192 208.346H339.221L342.869 211.999V213.7L337.522 208.346H333.215L342.869 218.013V219.715L299.165 175.952V180.265L340.627 221.783H338.928L329.425 212.267V216.58L334.621 221.783H332.921L329.425 218.282V220.114C329.425 220.393 329.46 220.637 329.529 220.846C329.457 220.634 329.42 220.387 329.42 220.102V211.697H328.855L319.338 202.167V206.48L324.548 211.697H322.848L319.338 208.182V210.027C319.338 210.306 319.373 210.55 319.442 210.76C319.37 210.547 319.334 210.3 319.334 210.016V201.61H318.782L299.165 181.967V186.28L314.474 201.61H312.776L299.165 187.982V192.295L312.609 205.757V207.458L299.165 193.996V198.309L312.609 211.772V213.473L299.165 200.011V204.324L312.609 217.786V219.487L299.165 206.025V210.338L310.594 221.783H308.896L299.165 212.039V216.353L304.588 221.783H302.889L299.165 218.054V220.114C299.165 220.692 299.317 221.119 299.616 221.398L309.728 231.511C310.015 231.78 310.43 231.914 310.973 231.914H321.059C322.18 231.914 322.74 231.354 322.74 230.233V214.263L329.821 221.343C329.839 221.363 329.857 221.38 329.876 221.398L339.988 231.511C340.275 231.78 340.689 231.914 341.232 231.914H351.319C352.44 231.914 353 231.354 353 230.233V220.147C353 219.604 352.865 219.189 352.596 218.903L342.449 208.755Z" fill="#0E3944"/>
</g>
<mask id="mask2" mask-type="alpha" maskUnits="userSpaceOnUse" x="313" y="168" width="40" height="41">
<path fill-rule="evenodd" clip-rule="evenodd" d="M313.068 168H353V208.755H313.068V168Z" fill="white"/>
</mask>
<g mask="url(#mask2)">
<path fill-rule="evenodd" clip-rule="evenodd" d="M342.647 180.748C342.627 180.785 342.601 180.818 342.577 180.853C342.601 180.818 342.627 180.785 342.647 180.748M342.783 180.41C342.77 180.457 342.756 180.503 342.739 180.548C342.756 180.503 342.77 180.457 342.783 180.41M342.853 180.012C342.848 180.065 342.846 180.121 342.839 180.172C342.846 180.121 342.848 180.065 342.853 180.012M352.597 178.557L342.459 168.42C342.458 168.418 342.456 168.417 342.453 168.416C342.56 168.523 342.639 168.657 342.705 168.806C342.465 168.273 341.965 168 341.192 168H340.974L342.869 169.897V171.599L339.275 168H334.967L342.869 175.912V177.613L333.268 168H331.105C330.39 168 329.906 168.23 329.647 168.687L342.165 181.222C341.909 181.363 341.585 181.437 341.188 181.437H340.681L329.424 170.165V174.479L336.374 181.437H334.674L329.424 176.18V178.087H327.021L332.782 183.856V185.557L325.322 178.087H321.019H321.014L332.781 189.868C332.776 190.43 332.627 190.848 332.336 191.124L319.748 178.519C319.476 178.799 319.338 179.215 319.338 179.768V182.422L328.427 191.524H326.728L319.338 184.123V188.173H319.075L322.695 191.799V193.501L317.375 188.173H313.068L322.695 197.814V198.248H331.101C331.943 198.248 332.468 198.565 332.678 199.197C332.465 198.573 331.941 198.26 331.105 198.26H329.147L332.782 201.899V203.6L327.448 198.26H323.141L332.782 207.914V208.335H341.188C341.748 208.335 342.168 208.475 342.448 208.755L335.349 201.655H341.232C342.353 201.655 342.913 201.095 342.913 199.974V191.568H351.319C352.44 191.568 353 191.008 353 189.887V179.801C353 179.258 352.865 178.844 352.597 178.557" fill="#0E3944"/>
</g>
<mask id="mask3" mask-type="alpha" maskUnits="userSpaceOnUse" x="228" y="168" width="65" height="64">
<path fill-rule="evenodd" clip-rule="evenodd" d="M228.558 168H292.48V231.915H228.558V168Z" fill="white"/>
</mask>
<g mask="url(#mask3)">
<path fill-rule="evenodd" clip-rule="evenodd" d="M241.83 220.988C241.801 221.052 241.771 221.115 241.733 221.17C241.77 221.114 241.801 221.052 241.83 220.988V220.988ZM241.025 221.687C241.064 221.675 241.1 221.658 241.137 221.643C241.1 221.658 241.064 221.675 241.025 221.687V221.687ZM240.651 221.762C240.678 221.759 240.708 221.758 240.734 221.753C240.708 221.757 240.678 221.759 240.651 221.762V221.762ZM241.488 221.438C241.528 221.404 241.57 221.372 241.605 221.334C241.569 221.372 241.528 221.404 241.488 221.438V221.438ZM282.296 169.16C282.311 169.232 282.323 169.307 282.33 169.387C282.323 169.308 282.311 169.232 282.296 169.16V169.16ZM281.939 168.42C281.938 168.418 281.936 168.417 281.934 168.416C282.103 168.587 282.214 168.816 282.28 169.09C282.12 168.441 281.67 168.082 280.926 168.017L282.332 169.426C282.339 169.506 282.349 169.584 282.349 169.67V171.144L279.21 168H274.903L282.349 175.457V177.158L273.203 168H270.586C270.022 168 269.601 168.142 269.321 168.426L282.349 181.471V183.173L268.904 169.71V174.023L282.349 187.486V189.187L268.904 175.725V180.038L282.349 193.501V195.202L268.904 181.74V186.053L282.349 199.516V201.217L268.904 187.754V192.068L282.349 205.53V207.231L268.904 193.769V198.082L282.349 211.544V213.246L267.384 198.26H263.076L282.349 217.559V219.26L231.158 168H230.239C229.118 168 228.558 168.56 228.558 169.681V169.711L280.561 221.784H278.863L268.904 211.812V216.126L274.555 221.784H272.856L268.904 217.827V220.114C268.904 220.393 268.94 220.637 269.009 220.847C268.937 220.635 268.901 220.387 268.901 220.103V211.697H268.79L258.818 201.713V206.026L264.482 211.697H262.784L258.818 207.727V210.027C258.818 210.306 258.853 210.551 258.923 210.76C258.85 210.548 258.814 210.301 258.814 210.016V201.611H258.717L248.731 191.612V195.925L254.409 201.611H252.71L248.731 197.627V199.941C248.731 200.22 248.767 200.464 248.836 200.674C248.764 200.461 248.727 200.214 248.727 199.93V191.524H248.643L228.558 171.412V175.726L244.336 191.524H242.637L228.558 177.426V181.74L242.003 195.202V196.903L228.558 183.441V187.754L242.003 201.217V202.918L228.558 189.455V193.769L242.003 207.231V208.932L228.558 195.47V199.783L242.003 213.246V214.947L228.558 201.485V205.798L242.003 219.261V220.103C242.003 220.389 241.965 220.637 241.891 220.851L228.558 207.5V211.813L238.516 221.784H236.817L228.558 213.514V217.827L232.509 221.784H230.811L228.558 219.528V220.114C228.558 220.693 228.711 221.119 229.01 221.399L239.122 231.511C239.408 231.781 239.823 231.915 240.366 231.915H250.453C251.573 231.915 252.134 231.354 252.134 230.234V204.177L259.214 211.257C259.233 211.276 259.25 211.294 259.27 211.312L269.301 221.344C269.319 221.363 269.337 221.382 269.356 221.399L279.468 231.511C279.755 231.781 280.169 231.915 280.712 231.915H290.799C291.92 231.915 292.48 231.354 292.48 230.234V179.801C292.48 179.258 292.345 178.844 292.077 178.557L281.939 168.42Z" fill="#0E3944"/>
</g>
<mask id="mask4" mask-type="alpha" maskUnits="userSpaceOnUse" x="168" y="168" width="54" height="64">
<path fill-rule="evenodd" clip-rule="evenodd" d="M168.039 168H221.875V231.915H168.039V168Z" fill="white"/>
</mask>
<g mask="url(#mask4)">
<path fill-rule="evenodd" clip-rule="evenodd" d="M185.268 188.173H181.488V188.161H198.294V181.449H198.299V181.512L211.744 194.974V196.676L198.299 183.213V187.527L211.744 200.989V202.69L197.246 188.173H192.974L211.744 206.968V208.669L191.275 188.173H186.967L211.744 212.982V214.684L185.268 188.173ZM211.655 220.763C211.645 220.798 211.637 220.834 211.625 220.867C211.636 220.833 211.645 220.798 211.655 220.763V220.763ZM181.248 221.125C181.248 221.127 181.246 221.128 181.245 221.129C181.246 221.128 181.248 221.127 181.248 221.125V221.125ZM181.379 220.832C181.378 220.838 181.375 220.844 181.373 220.849C181.375 220.844 181.378 220.838 181.379 220.832V220.832ZM181.457 220.496C181.457 220.498 181.456 220.5 181.456 220.503C181.456 220.5 181.457 220.498 181.457 220.496V220.496ZM211.333 168.42C211.332 168.418 211.33 168.417 211.328 168.416C211.434 168.523 211.513 168.657 211.579 168.805C211.339 168.273 210.839 168 210.066 168H208.831L211.744 170.916V172.617L207.132 168H202.825L211.744 176.931V178.632L201.126 168H196.818L211.744 182.945V184.646L195.119 168H190.812L211.744 188.959V190.661L189.113 168H184.805L198.224 181.437H196.525L183.106 168H178.799L192.218 181.437H190.519L177.1 168H172.827L186.247 181.437H184.548L171.129 168H169.72C168.754 168 168.206 168.42 168.073 169.254L181.483 182.682V184.383L168.039 170.921V175.234L194.38 201.61H192.681L168.039 176.936V181.249L188.374 201.61H186.675L168.039 182.951V187.264L182.367 201.61H181.483V202.427L168.039 188.965V193.278L181.483 206.74V208.442L168.039 194.979V199.293L181.483 212.755V214.456L168.039 200.994V205.307L181.483 218.77V220.102C181.483 220.225 181.474 220.338 181.46 220.448L168.039 207.008V211.322L178.487 221.783H176.788L168.039 213.023V217.336L172.481 221.783H170.781L168.039 219.038V220.114C168.039 220.692 168.191 221.119 168.491 221.399L178.603 231.511C178.889 231.78 179.304 231.915 179.847 231.915H189.934C191.054 231.915 191.615 231.354 191.615 230.234V211.742H198.294V201.622H198.299V205.534L211.744 218.997V220.102C211.744 220.301 211.72 220.476 211.684 220.64L198.299 207.236V211.549L208.519 221.783H206.82L198.299 213.251V217.564L202.513 221.783H200.814L198.299 219.265V220.114C198.299 220.692 198.451 221.119 198.75 221.399L208.862 231.511C209.149 231.78 209.564 231.915 210.107 231.915H220.193C221.314 231.915 221.875 231.354 221.875 230.234V179.801C221.875 179.258 221.739 178.844 221.471 178.557L211.333 168.42Z" fill="#0E3944"/>
</g>
<mask id="mask5" mask-type="alpha" maskUnits="userSpaceOnUse" x="107" y="168" width="55" height="64">
<path fill-rule="evenodd" clip-rule="evenodd" d="M107.519 168H161.354V231.915H107.519V168Z" fill="white"/>
</mask>
<g mask="url(#mask5)">
<path fill-rule="evenodd" clip-rule="evenodd" d="M145.348 208.346H141.14V208.334H149.541C150.383 208.334 150.909 208.651 151.118 209.283C150.906 208.659 150.383 208.346 149.546 208.346H147.047L151.223 212.528V214.228L145.348 208.346ZM150.347 201.474C150.299 201.493 150.25 201.509 150.198 201.524C150.249 201.509 150.3 201.493 150.347 201.474V201.474ZM151.199 200.301C151.196 200.318 151.193 200.334 151.191 200.352C151.194 200.335 151.196 200.317 151.199 200.301V200.301ZM151 221.096C150.994 221.107 150.989 221.121 150.981 221.133C150.989 221.121 150.994 221.107 151 221.096V221.096ZM151.139 220.748C151.127 220.786 151.119 220.826 151.106 220.863C151.119 220.826 151.128 220.786 151.139 220.748V220.748ZM151.205 220.363C151.2 220.425 151.195 220.487 151.186 220.546C151.195 220.487 151.2 220.425 151.205 220.363V220.363ZM150.813 168.42C150.812 168.418 150.81 168.417 150.808 168.416C150.914 168.523 150.993 168.657 151.059 168.805C150.819 168.273 150.319 168 149.546 168H148.801L151.223 170.425V172.127L147.102 168H142.794L151.223 176.44V178.141L141.096 168H136.788L151.223 182.455V184.156L135.089 168H130.782L151.223 188.469V190.17L129.082 168H124.775L151.223 194.484V196.185L137.779 182.722V187.036L151.169 200.444C151.073 200.915 150.834 201.242 150.451 201.426L137.216 188.173H132.908L146.327 201.61H144.628L131.209 188.173H126.902L141.137 202.427V204.128L125.203 188.173H120.968V188.161H137.774V181.437H136.495L123.076 168H118.768L132.187 181.437H130.488L117.069 168H112.762L126.181 181.437H124.482L111.063 168H109.2C108.385 168 107.87 168.3 107.648 168.894L120.963 182.227V183.928L107.519 170.466V174.779L151.223 218.542V220.102C151.223 220.149 151.216 220.19 151.214 220.234L107.519 176.481V180.794L148.454 221.783H146.755L137.779 212.795V217.109L142.447 221.783H140.749L137.779 218.81V220.114C137.779 220.393 137.814 220.637 137.884 220.847C137.811 220.635 137.774 220.387 137.774 220.102V211.697H136.682L127.692 202.696V207.009L132.375 211.697H130.675L127.692 208.71V210.027C127.692 210.306 127.728 210.551 127.797 210.76C127.725 210.548 127.688 210.3 127.688 210.016V201.61H126.609L107.519 182.495V186.808L122.301 201.61H120.963V201.972L107.519 188.51V192.823L120.963 206.285V207.986L107.519 194.524V198.837L120.963 212.3V214.001L107.519 200.539V204.852L120.963 218.315V220.015L107.519 206.554V210.867L118.422 221.783H116.722L107.519 212.568V216.881L112.415 221.783H110.716L107.519 218.583V220.114C107.519 220.692 107.671 221.119 107.97 221.399L118.082 231.511C118.369 231.78 118.784 231.915 119.327 231.915H129.414C130.534 231.915 131.095 231.354 131.095 230.234V214.263L138.175 221.343C138.193 221.363 138.211 221.381 138.23 221.399L148.342 231.511C148.629 231.78 149.044 231.915 149.586 231.915H159.673C160.794 231.915 161.354 231.354 161.354 230.234V220.147C161.354 219.604 161.219 219.19 160.95 218.903L153.79 211.742H159.673C160.794 211.742 161.354 211.181 161.354 210.06V179.801C161.354 179.258 161.219 178.844 160.95 178.557L150.813 168.42Z" fill="#0E3944"/>
</g>
</svg>
