<svg width="78px" height="73px" viewBox="0 0 78 73" version="1.1" xmlns="http://www.w3.org/2000/svg" xmlns:xlink="http://www.w3.org/1999/xlink">
    <g id="Beta---P2" stroke="none" stroke-width="1" fill="none" fill-rule="evenodd">
        <g id="D_you're_offline" transform="translate(-276.000000, -273.000000)" stroke-width="4">
            <g id="Group-8" transform="translate(278.000000, 274.000000)">
                <g id="Group-7">
                    <path d="M34.9164583,12.4055672 C37.5622917,10.1749701 40.9435417,9.01631343 44.395625,9.15631343 C53.0247917,9.15631343 60.020625,16.1719851 60.020625,24.8279552 L60.020625,25.0264627 L60.020625,25.4339254 L59.9164583,28.3070597 L62.676875,29.0906418 C70.9779167,31.4560149 75.795625,40.1234776 73.43625,48.4492985 C73.0664583,49.7573582 72.526875,51.0110896 71.833125,52.180194" id="Stroke-1" stroke="#0E3944"></path>
                    <path d="M49.14625,59.7551343 L16.1452083,59.7551343 C7.51604167,59.7551343 0.520208333,52.7384179 0.520208333,44.0834925 C0.569166667,37.2151343 4.55979167,30.9903582 10.77125,28.0984179" id="Stroke-3" stroke="#0E3944"></path>
                    <path d="M4.25895833,0.369223881 L73.3402083,69.6566866" id="Stroke-5" stroke="#FC016A"></path>
                </g>
            </g>
        </g>
    </g>
</svg>