<svg width="50" height="42" viewBox="0 0 50 42" fill="none" xmlns="http://www.w3.org/2000/svg">
<path d="M50 36.4212V19.2027C49.9087 17.3805 48.4255 16.0647 46.7959 16.0428H39.0415C36.825 14.3498 35.2541 12.0003 33.1179 10.2989C32.364 9.70081 31.7806 9.03583 31.3678 8.30389C30.0255 5.68155 30.8388 2.62857 28.9311 0.538147C25.0974 -1.09797 20.5048 1.19086 19.2111 4.78251C18.1943 7.71561 18.8757 10.6407 20.14 13.2311C15.5627 13.2236 10.9855 13.2604 6.40821 13.2846C2.68179 13.5614 0.02475 16.0566 0 19.6043C0.0101667 23.1795 3.10929 25.7795 6.40817 25.8437H11.7932C11.9727 26.897 12.3227 27.8521 12.8433 28.709C12.5417 30.9113 13.2319 33.0704 14.5665 34.6271C15.2988 47.3387 32.0433 39.7971 38.3145 39.6078H46.7959C48.641 39.521 49.978 38.0501 50 36.4212ZM38.4491 36.4212C33.4314 36.5286 16.2863 44.0734 17.9322 33.2613C16.1178 32.2888 15.4196 29.6857 16.532 28.0396C14.8418 26.3818 14.3604 24.299 15.9935 22.6571C14.378 22.6571 12.7805 22.6482 11.2009 22.6303C9.62129 22.6125 8.02371 22.6036 6.40821 22.6036C4.55942 22.5649 3.27813 21.2159 3.25796 19.6044C3.30021 17.6992 4.75437 16.4908 6.40821 16.4713C12.6742 16.471 18.8512 16.4185 24.6635 16.4178C24.1403 12.2422 19.1314 6.57237 24.2461 3.28298C25.0649 2.88301 25.7197 2.71323 26.5751 2.86788C26.7187 2.93928 26.7995 3.01072 26.8174 3.08212C26.8354 3.15352 26.8623 3.26956 26.8982 3.43022C27.4417 6.74 27.949 10.0494 30.533 12.2403C33.3773 14.4094 35.0545 17.8243 38.3144 19.2027H38.449V36.4212H38.4491Z" fill="url(#paint0_linear)"/>
<defs>
<linearGradient id="paint0_linear" x1="23.7925" y1="-27.1951" x2="-17.2433" y2="24.0166" gradientUnits="userSpaceOnUse">
<stop stop-color="#D45FFF"/>
<stop offset="1" stop-color="#FF3185"/>
</linearGradient>
</defs>
</svg>
