<?xml version="1.0" encoding="UTF-8"?>
<svg width="31px" height="31px" viewBox="0 0 31 31" version="1.1" xmlns="http://www.w3.org/2000/svg" xmlns:xlink="http://www.w3.org/1999/xlink">
    <!-- Generator: Sketch 52.3 (67297) - http://www.bohemiancoding.com/sketch -->
    <title>Fill 1</title>
    <desc>Created with Sketch.</desc>
    <g id="Beta---P2" stroke="none" stroke-width="1" fill="none" fill-rule="evenodd">
        <g id="D_Contact_live" transform="translate(-297.000000, -288.000000)" stroke="#FC016A" stroke-width="2">
            <path d="M324.201082,316.650289 C323.620985,317.536641 322.613448,318.056532 321.544848,317.995099 C320.476248,317.933971 319.102333,317.781152 318.155554,317.536641 C313.942216,316.436648 309.576527,313.807851 305.882224,310.109931 C302.187616,306.4114 299.562218,302.04077 298.463087,297.822959 C298.21853,296.875479 298.096709,295.53067 298.005115,294.460935 C297.944052,293.421764 298.432555,292.413157 299.317967,291.832444 L303.073332,289.326514 C304.050338,288.684368 305.36319,289.020876 305.882224,290.059741 L308.935367,295.958564 C309.362502,296.783788 309.149087,297.822959 308.416333,298.403672 L305.668504,300.543141 C306.76733,302.590919 307.805704,304.241367 309.820473,306.228017 C311.683196,308.092412 313.301362,309.193016 315.407725,310.323878 L317.575762,307.542262 C318.155554,306.80873 319.193928,306.564219 320.018276,307.022677 L325.941069,310.079062 C326.979442,310.598647 327.314983,311.912893 326.674128,312.890936 L324.201082,316.650289 Z" id="Fill-1"></path>
        </g>
    </g>
</svg>