<?xml version="1.0" encoding="UTF-8"?>
<svg width="26px" height="26px" viewBox="0 0 26 26" version="1.1" xmlns="http://www.w3.org/2000/svg" xmlns:xlink="http://www.w3.org/1999/xlink">
<g id="Beta---P1" stroke="none" stroke-width="1" fill="none" fill-rule="evenodd">
<g id="01.D_Home" transform="translate(-223.000000, -2872.000000)" fill="#FFFFFF">
<g id="Group-3" transform="translate(0.000000, 2857.000000)">
<g id="Group-5" transform="translate(208.000000, 0.000000)">
<path d="M38.4906255,39.7899146 C37.9705384,40.5845747 37.0672292,41.0506839 36.1091739,40.9956057 C35.1511187,40.9408016 33.9193334,40.8037912 33.0704965,40.5845747 C29.2930216,39.5983741 25.3789554,37.241522 22.0668216,33.9261454 C18.7544141,30.6102208 16.4006092,26.6917246 15.415181,22.9102388 C15.1959232,22.0607746 15.0867049,20.8550834 15.0045859,19.896011 C14.9498399,18.9643405 15.387808,18.0600722 16.1816252,17.5394328 L19.548505,15.292737 C20.4244412,14.7170195 21.6014805,15.0187163 22.0668216,15.9501127 L24.8041222,21.2387124 C25.1870706,21.9785684 24.9957333,22.9102388 24.3387811,23.4308781 L21.8752105,25.3490231 C22.8603651,27.1849619 23.791321,28.6646737 25.5976657,30.4458083 C27.2676928,32.1173347 28.7184622,33.1040833 30.6069259,34.1179599 L32.5506831,31.6240974 C33.0704965,30.9664477 34.0014524,30.7472311 34.7405236,31.1582622 L40.0506131,33.8984693 C40.9815691,34.3643045 41.2823984,35.5425936 40.707839,36.4194599 L38.4906255,39.7899146 Z" id="Fill-1"></path>
</g>
</g>
</g>
</g>
</svg>