<svg width="24px" height="24px" viewBox="0 0 24 24" version="1.1" xmlns="http://www.w3.org/2000/svg" xmlns:xlink="http://www.w3.org/1999/xlink">
    <g id="Beta---P2" stroke="none" stroke-width="1" fill="none" fill-rule="evenodd">
        <g id="D_form_states" transform="translate(-473.000000, -697.000000)">
            <g id="Group-5" transform="translate(473.000000, 697.000000)">
                <path d="M12,0 C5.37165354,0 0,5.37165354 0,12 C0,18.6283465 5.37165354,24 12,24 C18.6283465,24 24,18.6283465 24,12 C24,5.37165354 18.6283465,0 12,0" id="Fill-1" fill="#D10058"></path>
                <path d="M12,21.75 C10.7554134,21.75 9.75,20.6608022 9.75,19.3125 C9.75,17.9642458 10.7554134,16.875 12,16.875 C13.2445866,16.875 14.25,17.9642458 14.25,19.3125 C14.25,20.6608022 13.2445866,21.75 12,21.75 M10.246063,2.25 L13.7495079,2.25 C14.0152559,2.25 14.2234252,2.49950787 14.1968504,2.78740157 L13.1604331,14.0008612 C13.1382874,14.2503691 12.9434055,14.4422982 12.7130906,14.4422982 L11.2780512,14.4422982 C11.0477362,14.4422982 10.8528543,14.2503691 10.8307087,14.0008612 L9.79872047,2.78740157 C9.77214567,2.49950787 9.98031496,2.25 10.246063,2.25" id="Fill-3" fill="#FFFFFF"></path>
            </g>
        </g>
    </g>
</svg>
