<?xml version="1.0" encoding="UTF-8"?>
<svg width="18px" height="16px" viewBox="0 0 18 16" version="1.1" xmlns="http://www.w3.org/2000/svg" xmlns:xlink="http://www.w3.org/1999/xlink">
    <!-- Generator: Sketch 52.3 (67297) - http://www.bohemiancoding.com/sketch -->
    <title>Shape Copy 3</title>
    <desc>Created with Sketch.</desc>
    <g id="Beta---P2" stroke="none" stroke-width="1" fill="none" fill-rule="evenodd">
        <g id="D_Emergancy_help" transform="translate(-493.000000, -361.000000)" fill="#FFFFFF" fill-rule="nonzero">
            <path d="M510.845768,375.287492 L502.978597,361.567517 C502.543729,360.810828 501.456557,360.810828 501.021688,361.567517 L493.154518,375.287492 C492.719649,376.044182 493.253352,377 494.123089,377 L509.85743,377 C510.746934,377 511.280636,376.044182 510.845768,375.287492 Z M501.762011,365.033406 C502.230941,364.90319 502.699871,365.163623 502.914798,365.641084 C502.992953,365.814706 503.012492,366.010032 502.992953,366.183654 C502.953875,366.726223 502.934337,367.268793 502.914798,367.833065 C502.87572,368.679474 502.817104,369.547585 502.778026,370.393994 C502.758488,370.654427 502.758488,370.914861 502.738949,371.196997 C502.71941,371.652755 502.40679,372 501.996476,372 C501.605701,372 501.273543,371.652755 501.254004,371.2187 C501.195388,369.89483 501.117233,368.57096 501.058616,367.24709 C501.039078,366.899846 501.019539,366.530898 501,366.183654 C501,365.662787 501.31262,365.163623 501.762011,365.033406 Z M501.990099,375 C501.435644,375 501,374.54902 501,374 C501,373.45098 501.455446,373 502.009901,373 C502.564356,373 503,373.45098 503,374.019608 C502.980198,374.54902 502.524752,375 501.990099,375 Z" id="Shape-Copy-3"></path>
        </g>
    </g>
</svg>