<?xml version="1.0" encoding="UTF-8"?>
<svg width="25px" height="23px" viewBox="0 0 25 23" version="1.1" xmlns="http://www.w3.org/2000/svg" xmlns:xlink="http://www.w3.org/1999/xlink">
    <!-- Generator: Sketch 52.4 (67378) - http://www.bohemiancoding.com/sketch -->
    <title>Warning</title>
    <desc>Created with Sketch.</desc>
    <g id="Beta---P2" stroke="none" stroke-width="1" fill="none" fill-rule="evenodd">
        <g id="Warning">
            <path d="M24.7857882,19.8437392 L13.859163,0.788218212 C13.2551787,-0.262739404 11.7452179,-0.262739404 11.1412336,0.788218212 L0.214608417,19.8437392 C-0.389375892,20.8946968 0.351877578,22.2222222 1.55984619,22.2222222 L23.4130966,22.2222222 C24.6485191,22.2222222 25.3897725,20.8946968 24.7857882,19.8437392 Z" id="Shape-Copy-3" fill="#FC016A" fill-rule="nonzero"></path>
            <path d="M12.1694602,4.60195314 C12.820752,4.42109661 13.4720437,4.78280968 13.7705524,5.44595031 C13.8791011,5.68709235 13.9062382,5.95837716 13.8791011,6.1995192 C13.8248268,6.9530881 13.7976896,7.706657 13.7705524,8.49036865 C13.7162781,9.66593613 13.6348667,10.8716464 13.5805923,12.0472138 C13.5534552,12.4089269 13.5534552,12.77064 13.526318,13.1624958 C13.4991809,13.7954937 13.0649864,14.2777778 12.4951061,14.2777778 C11.952363,14.2777778 11.4910313,13.7954937 11.4638941,13.1926386 C11.3824827,11.3539305 11.273934,9.51522235 11.1925226,7.67651424 C11.1653854,7.19423015 11.1382483,6.6818033 11.1111111,6.1995192 C11.1111111,5.47609306 11.5453056,4.78280968 12.1694602,4.60195314 Z" id="Path" fill="#002B36"></path>
            <path d="M12.4862486,19.4444444 C11.7161716,19.4444444 11.1111111,18.8180828 11.1111111,18.0555556 C11.1111111,17.2930283 11.7436744,16.6666667 12.5137514,16.6666667 C13.2838284,16.6666667 13.8888889,17.2930283 13.8888889,18.0827887 C13.8613861,18.8180828 13.2288229,19.4444444 12.4862486,19.4444444 Z" id="Path" fill="#002B36"></path>
        </g>
    </g>
</svg>